# xmcd
#
# Track frame offsets:
#   150
#   13513
#   30129
#   44412
#   59036
#   75156
#   91889
#   112131
#   128066
#   142987
#   160550
#   175874
#   191692
#   209197
#
# Disc length: 3019 seconds
#
# Revision: 0
# Processed by: cddbd v1.5.1PL0 Copyright (c) Steve Scherf et al.
# Submitted via: uFREEDB ActiveX Control 1.5
#
DISCID=b40bc90e
DTITLE=Tchê Sarandeio - Na estrada
DYEAR=2004
DGENRE=Alternative
TTITLE0=Eu só quero vaneira
TTITLE1=Tô na vaneira
TTITLE2=Segura na palma da mão
TTITLE3=Sonho contigo
TTITLE4=Rio Grande gauchão
TTITLE5=Menina Fandangueira
TTITLE6=Posso ser o seu amor
TTITLE7=Bolicho do tio Candinho
TTITLE8=Ela me pegou
TTITLE9=Só você tem a chave
TTITLE10=A gente se entrega
TTITLE11=Agarradinho
TTITLE12=Seus beijos
TTITLE13=O Revórvinho
EXTD=by Lucas Zancanaro Trenttin\nLuKaST
EXTT0=
EXTT1=
EXTT2=
EXTT3=
EXTT4=
EXTT5=
EXTT6=
EXTT7=
EXTT8=
EXTT9=
EXTT10=
EXTT11=
EXTT12=
EXTT13=
PLAYORDER=
